<?xml version="1.0" standalone="no"?>
<!DOCTYPE svg PUBLIC "-//W3C//DTD SVG 20010904//EN"
 "http://www.w3.org/TR/2001/REC-SVG-20010904/DTD/svg10.dtd">
<svg version="1.0" xmlns="http://www.w3.org/2000/svg"
 width="260.000000pt" height="260.000000pt" viewBox="0 0 260.000000 260.000000"
 preserveAspectRatio="xMidYMid meet">
<metadata>
Created by potrace 1.11, written by Peter Selinger 2001-2013
</metadata>
<g transform="translate(0.000000,260.000000) scale(0.100000,-0.100000)"
fill="#000000" stroke="none">
<path d="M1315 2236 c-26 -18 -22 -70 9 -116 24 -36 24 -39 7 -45 -10 -3 -23
-15 -29 -28 -9 -18 -11 -7 -11 56 -1 70 -3 77 -21 77 -18 0 -20 -7 -20 -65 0
-74 -11 -84 -29 -25 -16 53 -36 53 -27 0 6 -37 -8 -80 -25 -80 -4 0 -10 31
-13 70 -7 73 -13 84 -35 70 -10 -6 -12 -22 -7 -64 8 -64 1 -72 -20 -21 -22 53
-33 42 -27 -25 5 -52 4 -60 -9 -55 -9 4 -22 30 -30 58 -9 31 -20 52 -29 52
-15 0 -15 -8 -4 -65 l7 -35 -26 30 c-29 34 -31 29 -14 -27 12 -40 3 -64 -18
-50 -6 4 -23 30 -37 57 -21 41 -27 47 -33 32 -4 -11 0 -33 9 -53 19 -38 8 -46
-16 -11 -22 32 -30 16 -12 -26 18 -45 19 -57 2 -57 -7 0 -27 20 -45 45 -48 69
-72 59 -30 -12 l23 -38 -33 23 c-33 24 -42 20 -18 -7 7 -9 17 -26 20 -38 12
-37 -25 -29 -58 13 -19 24 -32 32 -38 26 -7 -7 -4 -19 11 -38 23 -29 21 -45
-4 -24 -25 21 -30 2 -7 -23 22 -23 29 -47 14 -47 -4 0 -23 16 -42 35 -44 46
-68 30 -24 -16 19 -21 23 -30 12 -26 -10 4 -26 10 -35 14 -17 6 -17 5 -2 -13
23 -28 29 -50 16 -63 -8 -8 -21 -2 -48 25 -45 44 -66 28 -23 -18 23 -25 25
-30 9 -24 -46 18 -49 17 -25 -6 46 -43 52 -54 37 -66 -10 -8 -24 -4 -58 18
-24 17 -50 30 -56 30 -23 0 -14 -21 17 -38 39 -22 38 -29 -3 -25 l-32 4 40
-25 c60 -38 66 -40 86 -28 28 18 37 14 12 -3 -24 -17 -139 -16 -177 0 -16 7
-18 5 -13 -8 5 -12 1 -17 -12 -17 -20 0 -31 -19 -31 -52 0 -18 -4 -19 -34 -14
-21 4 -37 2 -44 -6 -8 -10 1 -13 41 -15 45 -2 54 1 72 23 18 23 23 24 50 14
l29 -11 -43 -25 c-23 -14 -48 -23 -56 -20 -8 3 -26 -10 -45 -34 -27 -35 -33
-38 -68 -33 -28 4 -42 1 -52 -12 -14 -16 -13 -17 8 -11 15 5 33 1 57 -14 l36
-22 33 36 c28 31 37 35 64 30 44 -9 30 -32 -24 -40 -48 -7 -54 -24 -13 -34 20
-5 22 -7 8 -16 -9 -5 -20 -22 -26 -39 -8 -23 -17 -31 -49 -38 -21 -4 -57 -7
-79 -5 l-40 3 27 18 c22 15 31 16 48 7 17 -9 25 -9 34 1 6 8 7 10 2 6 -5 -4
-15 -2 -21 3 -22 18 -60 14 -93 -10 -17 -13 -32 -28 -32 -32 0 -13 47 -28 84
-28 18 0 48 -5 66 -12 31 -10 35 -9 58 18 13 16 21 23 17 15 -6 -10 -2 -11 16
-6 l24 8 -25 -21 -25 -21 23 -1 c32 0 27 -23 -9 -44 -38 -23 -25 -47 16 -28
26 12 33 4 13 -16 -9 -9 -8 -12 5 -12 27 0 20 -23 -15 -52 -38 -30 -31 -48 9
-27 16 7 32 15 36 17 5 3 1 -7 -8 -22 -17 -25 -17 -26 4 -26 28 0 27 -5 -9
-50 -17 -21 -30 -41 -30 -44 0 -16 37 -3 63 22 31 28 31 26 10 -27 -5 -10 0
-12 15 -6 18 5 22 2 22 -17 0 -13 -7 -33 -15 -44 -8 -10 -15 -25 -15 -31 0
-24 20 -13 40 20 l20 32 0 -32 c0 -25 4 -31 15 -27 13 5 13 1 0 -36 -18 -52
-18 -50 -1 -50 8 0 17 12 21 28 l7 27 9 -23 c5 -13 13 -20 19 -17 6 4 10 -11
10 -39 0 -51 14 -61 25 -19 l6 27 19 -29 c10 -15 21 -43 25 -61 7 -40 25 -46
25 -9 0 25 1 25 25 9 14 -9 25 -20 25 -24 0 -5 5 -21 11 -37 8 -21 12 -24 19
-14 4 8 6 21 3 29 -5 11 0 11 21 -3 14 -10 29 -28 32 -42 7 -26 31 -26 26 1
-6 34 34 9 65 -40 11 -18 12 -18 12 5 1 17 5 22 17 17 9 -3 19 -6 24 -6 5 0
12 -9 15 -20 8 -24 25 -27 25 -4 0 21 48 11 67 -14 8 -11 12 -12 13 -4 0 14
46 17 55 2 3 -5 19 -7 35 -3 18 3 36 0 45 -7 10 -9 15 -9 15 -1 0 15 53 14 68
-1 8 -8 12 -8 12 -1 0 6 35 13 82 18 259 22 483 135 553 279 14 30 37 64 50
76 21 20 24 29 19 62 -8 47 0 49 22 3 15 -32 15 -38 0 -82 -22 -64 -20 -77 14
-103 17 -13 30 -29 30 -37 0 -8 4 -11 10 -8 18 11 10 35 -14 45 -31 12 -41 43
-22 72 8 13 20 41 26 63 11 38 10 44 -24 103 -25 44 -31 62 -20 62 7 0 14 -5
14 -11 0 -6 15 -29 34 -52 31 -38 35 -50 41 -127 4 -47 13 -94 20 -105 7 -12
34 -27 63 -34 33 -9 54 -21 60 -35 9 -20 9 -20 21 2 17 32 0 50 -45 49 -23 -1
-42 6 -57 21 -20 20 -21 30 -18 126 2 91 0 106 -16 120 -10 8 -45 40 -79 71
-33 30 -66 55 -72 55 -6 0 -20 -10 -31 -22 l-21 -21 10 34 c6 19 10 35 10 36
0 2 10 3 23 3 14 0 43 -20 77 -55 58 -59 84 -72 52 -27 -11 15 -32 51 -46 81
l-27 53 -47 -7 c-42 -6 -45 -5 -28 7 16 13 11 14 -45 10 -35 -2 -67 -7 -71
-11 -4 -3 4 -42 18 -86 68 -209 27 -333 -135 -419 -54 -28 -92 -40 -171 -52
-95 -14 -216 -13 -276 2 -20 5 -23 3 -18 -12 5 -17 4 -17 -13 2 -11 12 -48 28
-93 39 -41 10 -79 21 -85 25 -5 4 -26 13 -45 20 -19 8 -52 24 -72 37 -22 13
-44 20 -54 16 -12 -4 -15 -2 -12 8 6 16 -60 65 -81 61 -7 -2 -10 1 -6 8 4 6
-9 29 -29 50 -20 22 -36 36 -36 30 0 -5 -5 -10 -11 -10 -6 0 -9 7 -5 15 3 9
-2 31 -11 50 -13 28 -21 34 -37 29 -16 -4 -18 -3 -7 5 12 8 13 16 2 50 -10 36
-31 57 -31 32 0 -5 -9 -7 -20 -4 -31 8 -32 19 -2 18 24 0 27 4 30 38 l3 39 42
-5 c23 -3 68 -9 100 -13 31 -3 60 -10 62 -14 3 -5 -5 -21 -18 -37 -30 -35 -57
-90 -57 -114 0 -10 10 -25 23 -34 12 -8 23 -20 23 -25 1 -6 2 -14 3 -19 1 -12
57 -31 92 -31 31 0 120 -33 153 -56 20 -15 20 -15 -6 -8 -19 4 -28 2 -28 -6 0
-7 -8 -10 -20 -7 -11 3 -23 0 -27 -6 -3 -7 -3 -9 2 -5 4 4 14 3 22 -3 10 -9
17 -8 28 1 10 9 19 9 28 2 6 -5 21 -12 32 -15 16 -4 14 -5 -7 -6 -15 0 -30 -6
-34 -13 -5 -8 -2 -9 9 -5 9 3 19 2 22 -3 4 -6 19 -10 36 -10 19 0 29 -5 29
-14 0 -8 10 -22 22 -30 22 -16 125 -43 133 -35 5 6 -19 100 -32 124 -6 9 -48
39 -94 66 -79 46 -93 61 -35 39 21 -8 29 -6 46 12 l20 22 0 -28 c0 -35 37 -71
86 -85 58 -16 84 -14 84 7 -1 24 -33 90 -64 131 -14 19 -26 45 -26 57 0 12 -6
24 -12 26 -7 2 -78 5 -158 7 -80 2 -146 4 -146 4 -1 1 14 35 33 76 26 56 35
87 34 125 -1 56 -31 148 -51 154 -9 3 -11 -1 -7 -14 4 -11 -3 -5 -15 11 -62
82 -107 132 -139 153 -43 29 -89 71 -89 82 0 5 12 6 27 4 36 -7 42 -14 12 -15
l-24 0 22 -15 c55 -39 131 -112 166 -162 l28 -39 79 20 c51 13 77 24 73 31 -4
6 0 5 9 -1 12 -10 29 -9 89 7 87 23 97 24 82 9 -9 -9 -8 -19 3 -40 8 -16 18
-45 22 -66 8 -38 8 -38 62 -41 34 -2 62 -10 78 -23 14 -10 38 -19 54 -19 15 0
47 -6 69 -12 38 -12 40 -15 34 -43 -3 -16 -12 -36 -20 -44 -12 -12 -18 -12
-42 5 -28 18 -76 27 -67 12 3 -4 14 -8 24 -8 10 0 21 -9 25 -19 3 -11 14 -23
25 -26 10 -3 21 -12 24 -20 8 -22 -8 -18 -30 6 -14 16 -26 19 -52 14 -48 -9
-82 -26 -82 -41 0 -16 34 -39 70 -49 14 -3 35 -11 48 -18 17 -8 31 -8 55 1 29
11 30 11 15 -5 -11 -10 -31 -16 -57 -15 -31 1 -43 -3 -55 -20 -31 -44 -22 -53
55 -53 52 0 74 4 82 16 7 8 20 18 30 22 9 3 17 17 17 29 0 13 12 66 25 117 29
110 31 134 10 151 -8 7 -12 17 -9 22 19 30 -31 84 -146 160 -14 9 -49 39 -79
67 -44 41 -52 53 -42 65 9 11 9 15 -1 19 -8 4 -7 6 4 6 24 1 40 34 25 51 -10
12 -9 12 4 2 20 -15 59 -4 59 17 0 10 3 12 8 5 4 -7 26 -12 49 -12 24 -1 48
-4 54 -8 6 -3 15 0 20 7 7 11 9 11 9 -3 0 -16 35 -35 54 -29 5 1 4 -5 -4 -13
-11 -14 -9 -16 9 -16 11 0 21 -4 21 -10 0 -5 8 -10 17 -10 14 0 13 -3 -5 -16
-29 -20 -28 -30 5 -39 14 -3 36 -13 47 -21 20 -14 20 -14 -4 -15 -20 -1 -16
-4 15 -13 48 -15 61 -46 18 -43 -41 3 -37 -29 8 -65 26 -21 53 -32 93 -37 31
-4 56 -4 56 1 0 4 7 8 15 8 8 0 15 7 15 15 0 8 5 15 11 15 7 0 8 14 4 40 -4
22 -4 53 0 69 5 24 14 31 51 41 38 11 57 10 145 -9 55 -11 114 -21 132 -21 35
0 77 23 64 36 -4 4 -7 2 -7 -4 0 -7 -17 -12 -42 -12 l-41 0 22 24 23 25 -41
-21 c-30 -15 -51 -18 -76 -14 -19 4 -35 9 -35 12 0 2 16 19 35 36 20 17 33 33
30 36 -3 3 -14 -3 -24 -12 -27 -25 -93 -31 -157 -16 -48 12 -54 16 -48 34 3
12 11 26 18 31 14 12 17 45 5 45 -5 0 -6 12 -3 26 5 19 4 25 -5 20 -7 -5 -11
1 -11 14 0 28 -16 58 -50 95 -42 46 -100 144 -90 150 6 3 10 1 10 -4 0 -6 5
-11 10 -11 17 0 12 67 -6 74 -26 10 -31 8 -71 -26 -31 -27 -34 -29 -20 -8 9
13 17 30 17 38 0 7 -29 43 -64 81 -83 89 -92 105 -72 136 18 27 50 48 60 38
12 -12 6 -43 -9 -43 -8 0 -15 -7 -15 -15 0 -22 38 -18 50 6 15 27 5 66 -19 74
-10 3 -31 1 -47 -5 -68 -26 -87 -74 -55 -145 11 -25 18 -45 16 -45 -2 0 -20
14 -40 31 l-35 31 0 -26 c0 -28 -26 -36 -48 -14 -18 18 -15 41 4 34 10 -4 14
-1 12 6 -6 18 -36 22 -54 7 -8 -7 -13 -18 -10 -26 3 -7 2 -13 -1 -13 -13 0
-68 43 -86 66 -22 29 -14 49 14 34 14 -8 19 -7 19 3 0 18 -47 39 -72 31 -17
-5 -19 -12 -13 -55 4 -27 3 -49 -2 -49 -14 0 -87 41 -110 63 -23 21 -31 57
-13 57 6 0 10 -7 10 -15 0 -8 5 -15 10 -15 16 0 11 37 -6 44 -20 8 -17 8 -39
-8z m-48 -282 c-3 -3 -12 -4 -19 -1 -8 3 -5 6 6 6 11 1 17 -2 13 -5z m10 -46
c-3 -8 -6 -5 -6 6 -1 11 2 17 5 13 3 -3 4 -12 1 -19z m220 6 c-3 -3 -12 -4
-19 -1 -8 3 -5 6 6 6 11 1 17 -2 13 -5z m-352 -33 c-3 -6 3 -14 12 -20 10 -6
13 -11 7 -11 -15 0 -36 25 -27 33 10 10 15 8 8 -2z m758 -36 c4 -27 3 -35 -3
-25 -5 8 -10 28 -10 44 0 39 6 30 13 -19z m-638 25 c3 -5 1 -10 -4 -10 -6 0
-11 5 -11 10 0 6 2 10 4 10 3 0 8 -4 11 -10z m245 -12 c0 -6 -6 -5 -15 2 -8 7
-15 14 -15 16 0 2 7 1 15 -2 8 -4 15 -11 15 -16z m260 18 c0 -2 -9 -6 -20 -9
-11 -3 -18 -1 -14 4 5 9 34 13 34 5z m28 -31 c-3 -3 -9 2 -12 12 -6 14 -5 15
5 6 7 -7 10 -15 7 -18z m-361 -7 c-3 -8 -6 -5 -6 6 -1 11 2 17 5 13 3 -3 4
-12 1 -19z m-374 5 c-7 -2 -19 -2 -25 0 -7 3 -2 5 12 5 14 0 19 -2 13 -5z m44
1 c-3 -3 -12 -4 -19 -1 -8 3 -5 6 6 6 11 1 17 -2 13 -5z m100 -10 c-3 -3 -12
-4 -19 -1 -8 3 -5 6 6 6 11 1 17 -2 13 -5z m770 -16 c-3 -8 -6 -5 -6 6 -1 11
2 17 5 13 3 -3 4 -12 1 -19z m-482 0 c5 4 5 1 1 -6 -6 -10 -11 -10 -22 -1 -8
6 -14 14 -14 16 0 3 6 0 13 -6 8 -6 18 -7 22 -3z m190 -8 c-3 -5 -12 -10 -18
-10 -7 0 -6 4 3 10 19 12 23 12 15 0z m180 -1 c11 -17 2 -18 -19 -3 -17 12
-17 14 -4 14 9 0 20 -5 23 -11z m-220 -19 c-3 -5 -12 -10 -18 -10 -7 0 -6 4 3
10 19 12 23 12 15 0z m115 4 c0 -8 -19 -13 -24 -6 -3 5 1 9 9 9 8 0 15 -2 15
-3z m149 -23 c8 -13 6 -18 -5 -18 -8 0 -13 6 -10 12 2 7 -1 18 -7 25 -9 10 -9
11 0 6 7 -4 17 -15 22 -25z m-1079 15 c0 -2 -8 -10 -17 -17 -16 -13 -17 -12
-4 4 13 16 21 21 21 13z m540 -21 c14 -19 14 -19 -2 -6 -10 7 -18 18 -18 24 0
6 1 8 3 6 1 -2 9 -13 17 -24z m321 8 c13 -16 12 -17 -3 -4 -10 7 -18 15 -18
17 0 8 8 3 21 -13z m-797 -3 c-26 -10 -39 -41 -22 -52 10 -6 9 -8 -4 -8 -9 0
-21 -13 -27 -32 -6 -17 -13 -29 -16 -26 -3 2 7 32 22 66 20 48 31 62 47 61
l21 0 -21 -9z m197 -7 c13 -16 12 -17 -3 -4 -17 13 -22 21 -14 21 2 0 10 -8
17 -17z m950 -35 c15 -28 5 -21 -21 15 -15 20 -17 27 -6 18 9 -8 22 -23 27
-33z m-1118 13 c-4 -14 2 -19 26 -23 23 -3 31 -1 31 11 0 14 2 14 10 1 12 -20
-2 -27 -45 -22 -33 4 -47 26 -28 45 10 11 11 8 6 -12z m-124 -23 c-16 -6 -22
-17 -21 -38 0 -3 -6 -11 -14 -18 -18 -17 -18 -8 1 28 9 17 13 30 10 30 -3 0 0
6 7 13 9 10 15 11 24 3 9 -8 7 -13 -7 -18z m272 14 c-7 -2 -18 1 -23 6 -8 8
-4 9 13 5 13 -4 18 -8 10 -11z m786 3 c0 -8 -4 -12 -9 -9 -5 3 -6 10 -3 15 9
13 12 11 12 -6z m-725 -20 c16 -14 25 -25 19 -25 -5 0 -21 11 -35 25 -14 14
-23 25 -19 25 3 0 18 -11 35 -25z m-381 -3 c-7 -2 -18 1 -23 6 -8 8 -4 9 13 5
13 -4 18 -8 10 -11z m1279 -54 c0 -10 -4 -18 -10 -18 -5 0 -7 6 -4 14 3 8 0
25 -6 38 -11 22 -10 22 4 4 9 -11 16 -28 16 -38z m-1005 23 c-3 -6 -14 -10
-23 -10 -15 1 -15 2 1 6 9 2 17 9 17 15 0 6 3 9 6 5 3 -3 3 -10 -1 -16z m-305
-14 c12 -4 12 -6 -2 -6 -9 -1 -18 -9 -21 -18 -2 -10 -4 -3 -4 15 0 18 3 29 6
24 3 -5 13 -12 21 -15z m491 -24 c5 -13 21 -28 36 -34 60 -24 73 -33 73 -48 0
-11 -4 -9 -16 7 -8 12 -21 22 -29 22 -26 0 -65 23 -71 42 -3 10 -10 15 -16 12
-7 -4 -8 -2 -4 5 4 6 2 20 -6 29 -12 16 -11 16 6 2 10 -8 22 -25 27 -37z
m-300 6 c-20 -8 -23 -6 -15 14 4 13 9 14 19 4 11 -10 10 -13 -4 -18z m59 21
c0 -5 -8 -10 -17 -10 -15 0 -16 2 -3 10 19 12 20 12 20 0z m866 -2 c4 -7 4
-10 -1 -6 -4 4 -17 3 -29 -3 -20 -10 -20 -10 -2 5 24 19 23 19 32 4z m70 -24
c-9 -8 -17 -25 -17 -37 -1 -16 -3 -17 -6 -5 -5 20 28 89 34 71 3 -7 -3 -20
-11 -29z m-540 -9 c-4 -15 -13 -25 -24 -25 -16 1 -16 1 1 11 9 5 17 20 17 31
0 12 3 19 6 15 4 -3 4 -18 0 -32z m-489 19 c-3 -3 -12 -4 -19 -1 -8 3 -5 6 6
6 11 1 17 -2 13 -5z m211 -14 c8 0 13 -3 9 -6 -10 -10 -48 7 -40 19 5 8 8 8
11 -1 2 -7 11 -12 20 -12z m-107 -10 c10 0 19 4 19 10 0 18 43 -6 52 -29 5
-14 4 -20 -2 -16 -6 3 -10 13 -10 21 0 12 -9 14 -45 8 -40 -5 -45 -4 -44 12 0
11 3 14 6 7 2 -7 13 -13 24 -13z m999 16 c0 -3 -13 -11 -28 -19 -23 -11 -29
-11 -29 -1 0 7 4 11 8 8 4 -2 10 0 14 6 6 10 35 14 35 6z m-1205 -29 c16 -5
15 -5 -4 -4 -14 1 -26 9 -28 17 -3 10 -2 11 4 4 4 -7 17 -14 28 -17z m62 -7
c9 0 14 -3 10 -6 -3 -3 -15 -3 -26 1 -14 4 -18 11 -13 23 6 16 7 16 10 0 2
-10 11 -18 19 -18z m308 20 c17 -8 16 -8 -7 -7 -16 1 -28 5 -28 9 0 10 9 9 35
-2z m651 1 c-4 -5 -1 -12 4 -14 6 -3 5 -4 -2 -3 -15 3 -23 26 -8 26 6 0 9 -4
6 -9z m-601 -19 c-3 -3 -11 0 -18 7 -9 10 -8 11 6 5 10 -3 15 -9 12 -12z
m-569 -29 c-8 -15 -15 -25 -16 -21 0 12 23 58 27 54 3 -2 -2 -17 -11 -33z
m1353 34 c-2 -1 -13 -9 -24 -17 -19 -14 -19 -14 -6 3 7 9 18 17 24 17 6 0 8
-1 6 -3z m-1262 -14 c-26 -4 -28 -8 -22 -31 6 -26 6 -26 -9 -7 -18 26 -4 46
33 44 26 -2 26 -2 -2 -6z m181 -26 c12 -3 10 -5 -5 -6 -18 -1 -23 4 -22 22 1
15 3 17 6 5 2 -9 12 -19 21 -21z m127 13 c-3 -5 -14 -10 -23 -9 -14 0 -13 2 3
9 27 11 27 11 20 0z m386 -21 c-5 -13 -10 -19 -10 -12 -1 15 10 45 15 40 3 -2
0 -15 -5 -28z m506 9 c-3 -8 -6 -5 -6 6 -1 11 2 17 5 13 3 -3 4 -12 1 -19z
m-1176 -11 c-10 -9 -11 -8 -5 6 3 10 9 15 12 12 3 -3 0 -11 -7 -18z m395 -5
c-10 -2 -22 0 -28 6 -6 6 0 7 19 4 21 -5 23 -7 9 -10z m-258 -25 c12 -3 10 -5
-5 -6 -18 -1 -23 4 -22 22 1 15 3 17 6 5 2 -9 12 -19 21 -21z m177 -5 c-3 -3
-11 0 -18 7 -9 10 -8 11 6 5 10 -3 15 -9 12 -12z m50 0 c-3 -3 -11 0 -18 7 -9
10 -8 11 6 5 10 -3 15 -9 12 -12z m212 -14 c-3 -8 -6 -5 -6 6 -1 11 2 17 5 13
3 -3 4 -12 1 -19z m633 -87 c0 -2 -8 7 -18 20 -10 13 -19 40 -20 59 -2 32 0
30 18 -20 11 -30 19 -57 20 -59z m-594 37 c3 -11 3 -22 0 -25 -3 -4 -6 0 -6 7
0 7 -8 22 -17 32 -15 17 -15 18 0 13 9 -4 19 -16 23 -27z m-676 -93 c0 -11 7
-31 14 -44 14 -26 11 -51 -6 -51 -5 0 -6 5 -3 11 4 5 4 21 1 35 -5 20 -13 24
-44 26 l-37 1 34 4 c31 4 33 6 27 36 -4 23 -3 28 4 17 5 -8 10 -24 10 -35z
m107 -62 c3 -20 1 -33 -6 -33 -6 0 -8 7 -5 15 4 8 4 25 0 38 -4 19 -12 23 -38
21 -26 -1 -27 0 -5 3 23 4 27 9 28 36 1 31 2 31 11 -8 5 -22 12 -55 15 -72z
m1208 67 c10 -11 16 -20 13 -20 -3 0 -13 9 -23 20 -10 11 -16 20 -13 20 3 0
13 -9 23 -20z m-8 -37 c-4 -3 -2 -12 5 -20 20 -25 2 -23 -22 2 l-23 25 23 0
c13 0 20 -3 17 -7z m4 -76 c-13 -13 -101 29 -101 47 0 8 8 16 18 18 21 5 94
-54 83 -65z m-610 46 c13 -16 12 -17 -3 -4 -10 7 -18 15 -18 17 0 8 8 3 21
-13z m-537 -35 c7 -38 -3 -51 -35 -45 -21 4 -21 4 5 6 26 1 28 3 21 28 -3 15
-12 31 -18 35 -8 5 -7 8 4 8 11 0 19 -12 23 -32z m591 22 c3 -5 2 -10 -4 -10
-5 0 -13 5 -16 10 -3 6 -2 10 4 10 5 0 13 -4 16 -10z m52 -6 c-3 -3 -12 -4
-19 -1 -8 3 -5 6 6 6 11 1 17 -2 13 -5z m49 -20 c18 -14 18 -14 -6 -3 -31 14
-36 19 -24 19 6 0 19 -7 30 -16z m84 -50 c0 -2 -13 2 -30 11 -16 9 -30 18 -30
21 0 2 14 -2 30 -11 17 -9 30 -18 30 -21z m-730 -9 c0 -14 -4 -25 -9 -25 -4 0
-6 11 -3 25 2 14 6 25 8 25 2 0 4 -11 4 -25z m787 -41 c2 -13 1 -14 -3 -4 -4
8 -16 23 -28 34 l-21 18 25 -14 c14 -9 26 -24 27 -34z m-610 -6 c-3 -8 -6 -5
-6 6 -1 11 2 17 5 13 3 -3 4 -12 1 -19z m-187 -22 c0 -8 -7 -16 -15 -20 -12
-4 -13 -2 -2 14 14 24 17 25 17 6z m170 -55 c-28 -57 -33 -51 -7 8 12 27 23
45 25 41 2 -5 -6 -27 -18 -49z m-415 19 c39 -26 25 -26 -17 0 -18 11 -28 20
-23 20 6 0 24 -9 40 -20z m1092 -32 c-3 -7 -5 -2 -5 12 0 14 2 19 5 13 2 -7 2
-19 0 -25z m-10 -50 c-3 -7 -5 -2 -5 12 0 14 2 19 5 13 2 -7 2 -19 0 -25z
m238 10 c-4 -13 -13 -29 -20 -37 -12 -12 -15 -10 -21 14 -7 28 6 45 34 45 9 0
11 -7 7 -22z m-957 -28 c-22 -30 -35 -41 -22 -17 9 16 36 47 41 47 2 0 -6 -13
-19 -30z m-414 -35 c-4 -8 -11 -15 -16 -15 -6 0 -5 6 2 15 7 8 14 15 16 15 2
0 1 -7 -2 -15z m406 -28 c11 -5 9 -6 -4 -4 -11 1 -21 9 -23 17 -3 10 -2 11 4
4 4 -6 15 -14 23 -17z m-357 -82 c-3 -9 -8 -14 -10 -11 -3 3 -2 9 2 15 9 16
15 13 8 -4z m316 -18 c-2 -1 -13 -9 -24 -17 -19 -14 -19 -14 -6 3 7 9 18 17
24 17 6 0 8 -1 6 -3z m266 -7 c3 -4 -26 -10 -64 -12 -38 -2 -67 1 -64 5 3 5
-11 7 -30 6 -20 -2 -39 -1 -42 3 -4 3 39 6 94 7 55 0 103 -4 106 -9z m-165
-40 c8 -5 11 -10 5 -10 -5 0 -17 5 -25 10 -8 5 -10 10 -5 10 6 0 17 -5 25 -10z
m-313 -6 c-3 -3 -12 -4 -19 -1 -8 3 -5 6 6 6 11 1 17 -2 13 -5z m1273 -21 c0
-10 -4 -24 -9 -31 -6 -11 -9 -10 -13 5 -3 10 -3 24 -1 31 7 18 23 15 23 -5z
m-1323 -15 c-3 -8 -6 -5 -6 6 -1 11 2 17 5 13 3 -3 4 -12 1 -19z m90 -90 c-3
-8 -6 -5 -6 6 -1 11 2 17 5 13 3 -3 4 -12 1 -19z m98 -67 c3 -5 1 -12 -5 -16
-5 -3 -10 1 -10 9 0 18 6 21 15 7z m112 -53 c-3 -8 -6 -5 -6 6 -1 11 2 17 5
13 3 -3 4 -12 1 -19z m113 -39 c0 -6 -4 -7 -10 -4 -5 3 -10 11 -10 16 0 6 5 7
10 4 6 -3 10 -11 10 -16z m97 -11 c-3 -8 -6 -5 -6 6 -1 11 2 17 5 13 3 -3 4
-12 1 -19z"/>
<path d="M2118 1795 c-32 -18 -35 -31 -11 -57 16 -18 17 -18 40 4 14 13 23 17
23 9 0 -11 3 -11 15 -1 9 7 15 23 13 34 -4 26 -42 31 -80 11z"/>
<path d="M1980 664 c0 -17 17 -36 24 -26 3 5 -1 15 -9 22 -8 7 -15 9 -15 4z"/>
</g>
</svg>
